<?xml version="1.0" encoding="utf-8"?>
<!-- Generator: Adobe Illustrator 19.2.1, SVG Export Plug-In . SVG Version: 6.00 Build 0)  -->
<svg version="1.1" id="LOGO" xmlns="http://www.w3.org/2000/svg" xmlns:xlink="http://www.w3.org/1999/xlink" x="0px" y="0px"
	 viewBox="0 0 850.4 850.4" style="enable-background:new 0 0 850.4 850.4;" xml:space="preserve">
<g id="LOGO_1_">
	<g id="内圈">
		<path id="地球" d="M425.2,198.4C300,198.4,198.4,300,198.4,425.2S300,652,425.2,652S652,550.4,652,425.2
			S550.4,198.4,425.2,198.4z M637.7,419.5h-28.4c-1.4-46.6-20.1-88.8-49.9-120.5l20.1-20.1C614.4,315.8,636.3,365.1,637.7,419.5z
			 M565.5,510.6c0,0-1.4-1.3-2.2-1.4c-0.7-0.1-1-0.1-2.3,0c-1.3,0.1-1.6,1.4-1.6,1.4s0.1,1.4,0.1,2c0,0.6,0,2.7-0.1,3.3
			c-0.1,0.6-0.1,2.2-0.1,2.7c0,0.6-0.6,1.4-0.6,1.4l-2.2,3.5c0,0-0.7,1-1.2,1.9c-0.4,0.9,0,1.6,0,1.6v2.7l2.2,0.9l0.9,0.6
			c0,0-0.3,1-0.9,1.7c-0.2,0.3,0,0.7,0.3,1c-2.4,2.9-4.9,5.8-7.5,8.5l-5.2-5.2v-2v-1.6l-1.7-0.7c0,0-0.9-0.7-1.3-0.9
			c-0.4-0.1-2.2-0.3-2.4-0.3l-4.8-4.8c1.6-4.9,4.3-13.4,5.3-19c15.8-21.9,25.4-48.4,26.6-77.1h29.8c-1,32.3-11,62.2-27.5,87.6
			c-0.3-0.3-0.7-0.6-0.7-0.6s-0.3-0.9-1.3-2.3c-1-1.4,0-1.9,0-1.9L565.5,510.6z M542.4,550.4c-1.4,1.3-2.8,2.6-4.3,3.9
			c-0.1,0-0.3-0.1-0.4-0.4c-0.1-0.6,0.4-2.9,0.4-2.9s0.6-2.6,1-2.9c0.1-0.1,0.3-0.3,0.5-0.5L542.4,550.4z M528.3,479.9
			c0-0.6-0.1-2.7-0.1-2.7l-0.6-1.7l-1.3-1.3h-0.7c0,0,0,1.3-0.9,2c-0.9,0.7-1.4,1.4-1.4,1.4l-1.6,0.4l-0.6,0.7l-0.7,1.9
			c0,0-0.2,0.3-0.3,0.7c-0.1,0.4,0,0.1-0.4,1.6c-0.4,1.4,0.1,0.9-0.7,2.2c-0.9,1.3-0.1,0.7-0.9,1.3c-0.7,0.6-0.9,0.7-1.4,1
			c-0.6,0.3-0.1,0.6-1.9,0.7c-1.7,0.1-2.7,0.1-3.3,0.1c-0.6,0-1.3-0.8-1.3-0.8s-1.3,0,0.6-0.7c1.9-0.7,2.7-2,2.7-2s1.9-1.4,2.6-1.7
			c0.7-0.3,2-1.2,2.3-1.6c0.3-0.4,0.7-0.9,0.9-1.3c0.1-0.4-0.1-1.4-0.1-1.4s0.4-1.4,1.4-2.2c1-0.7,1.7-0.3,2.3-1.4
			c0.6-1.2,0.6-1.2,0.6-1.2s1.9-1.6,2-2.9c0.1-1.3,1.2-3.7,1.2-3.7s-0.1-1.3,0.3-2.3c0.4-1,1.6-2.3,1.6-2.3l1.9-2c0,0,1.9-2,2.3-2.2
			c0.4-0.1,1.9-0.9,1.9-0.9s0.1,0.6,0.3-0.8c0.1-1.4,0-3.4,0-3.4l1.9-0.4c0,0,1.6,0.3,2,0.1c0.4-0.1,2.5-0.6,2.5-0.6
			s1.2-0.9,1.7-1.3c0.6-0.4,2.3-1.4,2.3-1.4v-0.4l1.9-0.7l1.4-1.5v-0.7l1-2.1c0,0-1.4-0.9-1.4-1.9c0-1-0.1-1.9-0.1-1.9l-0.9-0.6
			c0,0,0.6,0-1.2-0.4c-1.7-0.4-1.7-0.4-1.7-0.4s-1.6-0.6-2-1.3c-0.4-0.7-1.4-2.3-1.4-2.3l-1.3-3.9l-0.4-0.8h16.5
			c-0.9,22.2-7.4,42.9-18.1,60.8l-0.7,0.4c0,0-0.7,1.2-1.6,2.6c-0.6,1-1.1,1.9-1.5,2.9c-2.5,3.7-5.2,7.3-8,10.8l-0.2,0.1
			c0,0-1.4,0-2.7,0.7c-1.3,0.7-2,1.3-2,1.3s-0.6,0.6-1.2,1.1l-5.2-5.2c0.4,0,0.9,0,1.4,0.1c1.7,0.3,2.9,0.4,2.9,0.4s0.6-0.7,1.4-1
			c0.9-0.3,3.8-4,4.3-7.9c0.6-3.9,1.9-5.6,1.9-5.6s0.6,0.7,1.1-2.6c0.6-3.3,0.6-3.3,0.6-3.3s0.4-0.7,0.4-1.2c0-0.4,0.1-2,0.1-2.5
			C528.5,482.3,528.3,480.5,528.3,479.9z M500,377.3l1.1,0.7c0.5,0.9,1.1,1.8,1.6,2.7c0,0.1,0,0.2-0.1,0.2c-0.4,0.4-0.9,0.9-1.3,0.9
			c-0.4,0-1.9-0.6-1.9-0.6s-0.4-0.1-0.6-1.6c-0.1-1.4-0.6-2.3-0.6-2.3l-1.6-0.7l-0.3-1c0,0,0.6-1.2,0.7-1.7c0.1-0.3,0.2-0.9,0.2-1.4
			c0.8,1.1,1.5,2.1,2.3,3.2h-0.9L500,377.3z M496.7,509.3l0.3-1.9l1.8-0.6l5.8,5.8c-0.5,0-1.1,0-1.7-0.1c-1.7-0.3-0.9-0.1-1.7-0.3
			c-0.9-0.1-3.2-0.6-3.2-0.6l-1.3-0.3V509.3z M501.4,361.7l0.4-1c0,0-0.1-0.1-0.1-0.1l0,0l-2.2-1.7l21.8-21.8
			c3.9,4.2,7.5,8.7,10.8,13.4c0.1,0.2,0.1,0.4-0.1,0.4c-0.4,0-1.4,0.1-1.4,0.1s-1.3-0.6-1.9-0.6c-0.6,0-1.9-0.5-2.3-0.6
			c-0.4-0.1-1.9-0.7-1.9-0.7c-0.1,1.3,0.7,2.5,1.4,2.9c0.7,0.4,1.1-0.1,1.5,1.3c0.4,1.4,1.7,1.6,1.7,1.6l1.3,1.6c0,0,0.4-1,0.6-1.6
			c0.1-0.6,0.4-0.9,0.9-1c0.5-0.1,1.1-2.5,1.4-0.5c0.3,2,0.3,2,0.3,2s-0.7,0.3-1,1.2c-0.3,0.9-0.3,0.9-0.3,0.9l0.6,1.7
			c0,0,1.2-0.4,1.6,0c0.4,0.4,1.6,0.1,2,0c0.4-0.1,0.5,0.8,1.2,0c0.6,1.1,1.3,2.2,1.9,3.3c-0.2,0-0.4,0-0.7,0
			c-1.7-0.1-3-0.3-3.3-0.8c-0.3-0.5,0-1-1.2-0.8c-1.2,0.1-1.7,0.8-1.7,0.8l-2.6,0c0,0,0,0,0,0.8c0,0.8-1-0.5,0,1.1
			c1,1.6,1.2,2,1.3,2.4c0.1,0.4,1,0.6,1.3,1.2c0.3,0.6,0-0.7,1,0.8c1,1.5,2.2,1.5,2.2,1.5s0.1,0.3,0.6,1.5c0.5,1.1,1.8,2,1.8,2
			s1.6,1.3,1.7,1.7c0.1,0.4,0.3,0,0.9,1c0.5,1,1.1,1.9,1.1,1.9s1.6,0.7,2.3,1.2c0.7,0.4,0.7,0.4,0.7,0.4s1-1,1-1.4
			c0-0.2,0-0.9,0-1.5c1.5,3.6,2.8,7.3,3.9,11.1c0,0.5,0,1,0,1.3c-0.1,1.2-1,2.2-1,2.2s-1-0.3-1.9-0.1c-0.9,0.1-2.3,0.4-2.3,0.4
			s0,0.3-0.1,1.2c-0.1,0.9,0,2.7,0,2.7l0.1,3l-0.9,1.6l-0.9,1c0,0-0.7,0.3-1.4-0.1c-0.7-0.4-0.7-0.4-0.7-0.4s-0.3-2-0.3-2.9
			c0-0.9,0-2.9,0-2.9s0-1.6,0-2.7c0-1.2,0-2.3,0-2.3s-1.2-1.3-1.7-2c-0.6-0.7-3-3.2-3-3.2s-0.9-0.4-1.3-0.4c-0.4,0-1.7,0.7-1.7,0.7
			l-0.4,1.6c0,0-0.4,2.4-0.4,3c0,0.6-0.9,1.6-0.9,1.6s-0.4-0.1-0.9-0.4c-0.4-0.3-1.3-0.9-1.3-0.9s-1.2-1.3-1.3-1.7
			c-0.1-0.4,0.3-1.2,0.9-1.4c0.6-0.3,0.6-0.3,0.6-0.3l0.7-2.5c0,0-1.3-0.7-2.3-0.4c-1,0.3-2.4,0.3-2.4,0.3l-1.7-1.4l-1.4-2.7
			l-1.7-2.5c0,0-0.9-1-1.3-1.2c-0.4-0.1-2.3-1.2-3.2-1.9c-0.9-0.7-2.7-1.3-2.7-1.3s-0.3,0.9-1.3,0c-0.4-0.3-1-0.4-1.7-0.4
			c-0.4,0-0.7,0.1-1,0.2C506.6,368.3,504.1,364.9,501.4,361.7z M512.6,328.5c-1-0.6-1.6-0.7-1.6-1.2c0-0.1-0.1-0.2-0.2-0.4
			C511.5,327.4,512.1,328,512.6,328.5C512.7,328.5,512.7,328.5,512.6,328.5z M551.7,405.6c0,0,0-2.6,0.1-3c0.1-0.4-0.4-1.9,0-2.3
			c0.4-0.4,0-1.4,0-1.4s0.3-1,0.8-1.8c1.6,7.3,2.6,14.8,2.9,22.5h-20.3c0.2-0.5,0.4-1,0.4-1.3c0-0.4-0.9-0.9,0.1-1.6
			c1-0.7,1.9-1.2,1.9-1.2l1.7-2.9c0,0,1.4-1,1.6-1.4c0.1-0.4-0.4-2.3-0.4-2.3l-0.9-0.9c0,0,0-1.9,0.4-2.4c0.4-0.6,2.2-1.9,2.2-1.9
			s0.7-0.1,1.4-0.3c0.7-0.1,1.4-0.3,1.4-0.3s1-1.6,1.2-2c0.1-0.4,0.1-2.6,0.1-2.6l2-2l1.2-0.9v2.3c0,0,1,2.3,0,3.5
			c-1,1.2-1.3,1.7-1.3,2.7c0,1-0.1,2.4-0.1,2.9c0,0.4,0.3,1.2,0.3,1.2l1.6,0.7l1.1-0.1c0,0,0.4-0.9,0.6-1.3
			C551.8,407,551.7,405.6,551.7,405.6z M566.8,419.5c-1.4-34.9-15.3-66.5-37.5-90.5l9.1-9.1c0.3,0.1,0.5,0.2,0.5,0.2
			s1.6-0.3,2.2,0.7c0.6,1,4.8,1.8,5.6,2.8c0.9,1.1,2.3,2.1,2.3,2.1s1-0.4,2,0.7c1,1.2,5.9,5.1,5.9,5.1l2.2,2.4c0,0,2.7,1.4,3.3,2.3
			c0.6,0.9,2.7,0.9,2.7,0.9s0.7,1.4,1.6,0c0.9-1.4,1-1.5,1-2.2c0-0.7,0-3.4,0-3.4l0.5-0.9c17,25.6,27.2,56.1,28.3,88.9H566.8z
			 M530.4,289.8c4.1,3.2,8.1,6.6,12,10.2l-2.1,2.1c-0.6-0.9-2.9-4.1-3-4.4c-0.1-0.4-3.2-2.3-3.2-2.3s-2.2-2.2-2.4-2.9
			C531.5,292.1,530.9,290.9,530.4,289.8z M430.9,212.7c54.4,1.4,103.8,23.3,140.6,58.2L551.4,291c-25.4-23.9-57.6-40.6-93.3-47.1
			c0.3-0.1,0.6-0.1,1-0.1c1.2,0.1,0,0,2.7,0.1c2.7,0.1,0,0,0-0.7c0-0.7,0-1.7,0-1.7s2,0.6,3.2,0.6c1.2,0,0.9-1.3,0.9-1.3l-1-1.1
			c0,0,0.9,0.3,1.9,1.1c1,0.8,1.9-0.3,2.3,0c0.4,0.3,1.9-0.7,1.9-0.7s0,0-0.1-1.2c-0.1-1.2-1.4-1-1.4-1l-3-0.6c0,0,0,0-4.3,0
			c-0.9,0-1.4,0-1.8,0c0.1,0,0.1,0.1,0,0.2c-0.4,0.6-4.2-0.6-4.6,0c-0.4,0.6-1.2-0.1-1.6,0c-0.4,0.1-2.7,1-3.9,1.6
			c-1.2,0.6-3.5,0-3.5,0s-1.7,0.7-3.2,1c-1.2,0.2-1.2,0.8-1.9,1.6c-3.5-0.3-7.1-0.5-10.7-0.6V212.7z M430.9,253.8
			c1.8,0.1,3.5,0.1,5.2,0.3c0.4,0.3,0.2,0.5,0.5,0.7c0.4,0.3,3.2,1.2,3.6,1.2h1.6c0,0,0-0.9,0-1.3c0,0,0-0.1,0-0.1
			c18.1,1.7,35.4,6.3,51.4,13.2c0,0,0,0-0.1,0c-3.2,0.4-2.5,0.1-3.2,0.4c-0.7,0.3-1.7-0.3-2.6,0.4c-0.9,0.7-2,1.4-2,1.4v2.9h1.2
			c0,0,0.9,1.4,1.3,2c0.4,0.6,4.2,3.5,4.2,3.5l2,2.3c0,0,1.6,1.3,2.2,2.7c0.6,1.4,1.6,2.2,1.6,2.2s0.3,0.6,1,2.2
			c0.7,1.6,0.7,1.6,0.7,1.6s1.7,2.6,2.6,3c0.9,0.4,1.9,1.2,1.9,1.2s0.1,1.2,0.3,1.7c0.1,0.6,0.6,1.7,0.6,1.7s0.6,0.4,1.9,0.3
			c1.3-0.1,3.5,0,3.5,0l2.2-1.2l1-0.3c0,0,0.5,0.1,1.9,1c1.4,0.9,3,4.5,3,4.5s0.6,1.3,0,1.6c-0.6,0.3-0.7,1-0.7,1s-0.9,1.4,0.3,1.7
			c1.2,0.3,3.6,2.5,3.6,2.5s5.9,6,6.3,6c0.3,0,0.4-0.4,1-0.3l-7.3,7.3c-24-22.1-55.6-36.1-90.5-37.5V253.8z M430.9,294.9
			c26.5,1.1,50.9,10.2,71,24.8c-0.4,0.6-0.9,1.1-0.9,1.1v2.9c0,0,1.7,1.3,3.2,2.5c1.4,1.2,2.3,1.9,2.7,2.3c0.3,0.3,1.3,1,2.1,1.5
			h3.4l-21.2,21.2c-16.2-14.5-37.2-23.7-60.4-25V294.9z M435,485.1c0,0-0.1-0.3,1,0c1.2,0.3,2.5,0,2.5,0s0.7-1,1.2-1
			c0.4,0,0.4,0,0.4,0l2.7,3.5l2,2.2c0,0,1.2,0.7,1.5,0c0.3-0.7,1.7-0.9,1.7-1.4c0-0.6-0.1-2.9-0.1-2.9s-0.4-2.6-0.4-3
			c0-0.4-0.1-1.9-0.1-1.9s-0.6-1.9-1.2-2.4c0,0-0.1-0.1-0.1-0.1c1.4-0.6,2.8-1.2,4.2-1.8c0.9,0.2,1.5,0.2,1.5,0.2c1-0.6,1.6-1,1.6-1
			l1.8-1.9c0.3-0.2,0.6-0.4,0.9-0.6c0.6-0.2,1.5-0.4,1.6,0.1c0.1,0.7,0.9,0.9,0.1,1.4c-0.7,0.6-1.3,1-1.9,1.6
			c-0.6,0.6-1.6-0.1-2.2,1.3c-0.6,1.4-0.6,1.4-0.6,1.4l2.3,1.6c0,0,1.4,0,0,0.7c-1.4,0.7-0.4,0.3-1.4,0.7c-1,0.4-1,0.4-1,0.4
			s-0.6,0.6-0.4,1.3c0.1,0.7,0.1,0.9,0.6,1.6c0.4,0.7,0.7,0.7,0.9,1.4c0.1,0.7-1.7,1.7-1.7,1.7l-0.9,0.3c0,0-1,1.2-1.4,1.6
			c-0.4,0.4-2,1-2,1s-0.9,0.7-2,0.7c-1.2,0-0.7,0.1-2,0c-1.3-0.1-1.9,0.1-1.9,0.1s-0.9-1.1-0.9-2.1c0-1-0.3-1.9-0.3-1.9
			s-0.9-1.7-1.3-1.3c-0.4,0.4-1.9,1.3-1.9,1.3s-0.3,0.9-0.4,1.6c-0.1,0.7-1.2-0.4,0.3,1.6c1.4,2,1.4,2,1.4,2v1.3
			c-1.2,0.7-1.2,0.7-1.2,0.7s-1.3-0.1-2,0.9c-0.7,1-1.6,1.7-1.6,1.7s-1,0.6-1.6,1.3c-0.6,0.7-0.6,0.7-0.6,0.7l-1.2,0.4v-18.4
			c0.9-0.1,1.9-0.2,2.8-0.3c0,0.7-0.1,1.6-0.1,2.1C433.6,484.2,435,485.1,435,485.1z M451,510.3c-0.4-0.1-2.3-1.4-2.3-1.4
			s0,0-0.3-1.6c-0.3-1.6,0-0.6,0-0.6l2.2,0.1l1.4,0.7c0,0,0,0,1,0s1.4,0.3,1.9,0.4c0.4,0.1,1,0.1,2,0.3c0.6,0.1,0.9,0.1,1,0
			c-2,0.8-4.1,1.5-6.1,2.2c-0.1,0-0.2,0-0.4,0C450.3,510.3,451.4,510.4,451,510.3z M446.6,511.9c-4.7,1.1-9.5,1.9-14.4,2.3
			c0.5-0.4,1-0.8,1.5-1.2c0.5-0.4,0.8-0.6,0.9-0.8c1.1-0.1,3-0.3,3.3-0.4c0.4-0.1,0.9,0,1.3,0c0.4,0,0.9,0,1.3-0.3
			c0.4-0.3,2-1.6,2-1.6s0.9,0,1.3,0.1c0.4,0.1,1.2,0.6,1.2,0.6L446.6,511.9C446.5,511.9,446.6,511.9,446.6,511.9z M453.4,570.2
			c1.9,0.9,6.5-0.9,10.1,1.9c3.6,2.7,5.8,3.7,5.5,5.5c-0.3,1.7-2.6,3.2-2.6,3.2s-3.5,3.6-0.4,6.6c1.8,1.8,5,2.2,7.3,2.5
			c-13.5,3.9-27.7,6.2-42.4,6.7v-29.8c8.2-0.3,16.3-1.3,24.1-3c0.1,0.6-0.1,1.4-0.7,2.4C453,568.3,451.6,569.4,453.4,570.2z
			 M472.6,517.9c0,0-2.6,0.3-3.7,1.4c-1.2,1.2-1.4,1.9-1.4,1.9s0,0.6,0,2c0,1.4,0,1.4,0,1.4s-2.3-1-4.8,0c-2.4,1-4.3,1-4.3,1
			s-1.7,0.3-3.2,0c-1.4-0.3-4,0.1-4,0.1l-2.6-1.1c0,0-0.2,0.7-0.2,0.1l-5.3,2.4l0,0c-0.3,0.2-0.7,0.3-1,0.4c-0.6,0.3-1,0.4-2.3,0.7
			c-1.3,0.3-1.2,0.1-3.3-0.9c-0.8-0.4-1-1.2-0.9-2.1l-3.7-1.1c14.5-1,28.2-5,40.3-11.6l0.1,0.1l0-0.1c6.4-3.4,12.3-7.6,17.8-12.2
			h1.8l0.7,1.6c0,0-0.4,1,0,1.7c0.4,0.7,0-0.4,0.4,0.7c0.4,1.2,1.4,0.4,0,2.5c-1.4,2-0.4,1-1.4,2c-1,1-2.5,1.7-2.5,1.7
			s-2.2,1.6-2.9,2.4c-0.7,0.9-1.6,1.2-1.6,1.2s-1.4,1.2-2.9,1.7c-1.4,0.6-4.2,0.9-4.2,0.9s-0.9-0.7-2.3,0
			C473.7,517.5,472.6,517.9,472.6,517.9z M492.6,369c-0.1,1.3-0.4,2.3-0.4,2.3s-1.4,0.3-1.9,0c-0.4-0.3-2-1.2-2-1.2s0,0,0,0l3.9-3.9
			c0.2,0.2,0.4,0.4,0.6,0.7l-0.2,0.1C492.7,367.3,492.8,367.8,492.6,369z M430.9,336.1c18.1,1.1,34.7,7.6,48.3,18
			c-0.5,0.3-1.1,0.9-1.7,1.2c-0.7,0.4-0.9,0.6-1.2,1.3c-0.4,0.7,0,1.8,0,1.8s-1.1,0.4-2.7,0.1c-1.6-0.3-1.7,0.3-2.8,0.1
			c-1.1-0.2-3.4,0-3.4,0l2.6,2.5c0,0,1,1.3,0.8,1.7c-0.2,0.4,1.8,0.9,1.8,0.9s1.4-0.3,3-1.6c0.2-0.2,0.3-0.3,0.5-0.4
			c0.4-0.4,1.1-1.4,2.3-2.4c1.2-1,1.3-0.6,2.4-0.7c1.2-0.1,0,0,0.4,0.6c0.3,0.4,1.4,0.2,1.9,0.1l-7.6,7.6c-0.6,0-1.4,0.1-1.4,0.1
			s-1-0.6-2.2,0.7c-1.2,1.3-2,1.7-2,1.7s-0.7,1.2-1.7,1.7c-1,0.6-1.7,0.7-1.7,0.7l0.3-1.7l2.2-2.2c0,0,1.9-1.4,1.8-1.9
			c-0.1-0.4,0-1.2,0-1.2v-0.6H467l-1,1.3l-3.2,2.3l0.4,2.2l0.7,1.3c0,0-1.3-0.1,0,0.7c1.3,0.9,1.3,0.9,1.3,0.9s1.6-0.7,1.3,1.6
			c-0.1,0.6-0.2,1.1-0.3,1.5l-3.2,3.2l-0.7,0.3l-0.9,0.6l-1.6,0.2c-4-3.1-8.4-5.7-13.2-7.6c0.4-0.3,0.6,0,1.8-1.2
			c1.3-1.3,1.3-1.3,1.3-1.3s1.9-1.9,1.9-2.5c0-0.6-0.1-2,0-2.6c0.1-0.6,0-2.7,0-2.7s1-0.6-0.1-0.7c-1.1-0.1-2.3,0-2.3,0
			s-1.2,0.9-1.9,1.4c-0.7,0.6-0.9,0.4-1.7,1.2c-0.9,0.7-1.7,1.2-1.7,1.2s-1.6,0.7-1.7,1.3c-0.1,0.6-0.6,2.5-0.6,2.5s0,0.9-0.1,1.6
			c-3.4-1-7-1.8-10.7-2.1V336.1z M419.5,212.7V241c-46.6,1.4-88.8,20.1-120.5,49.9l-20.1-20.1C315.8,236,365.1,214.1,419.5,212.7z
			 M391.3,371.7c-3.6-3.5-5.9-4.9-5.9-4.9h-2.9H380h-1.4c0,0-1.4-2.9-7.6-3.9l-4.7-4.7c14.4-12.7,32.9-20.8,53.3-22.1v32.7
			c-9.9,1-19,4.5-26.8,9.9C393.3,377.5,394.2,374.4,391.3,371.7z M387,539.7c-0.9,1.4-3,3.3-3,3.3v3.2l2.9,1.3c0,0,1.2,1.3,1.9,2.3
			c0.3,0.5,0.5,0.7,0.6,0.8c-19.7-5.6-37.5-15.8-52.3-29.3l22.1-22.1c16.1,14.4,37,23.6,60,25l-5.6,1c-1,0.3-0.3,0.1-1.4,0.5
			c-1.3,0.6-3.3,0.9-4.3,1.6c-1,0.7-1.9,1.7-1.9,1.7s-0.6,0.3-1.2,0.9c-0.6,0.6-0.6,0.6-0.6,0.6s-1,0.3-3.5,0
			c-2.5-0.3-3.7,0.1-3.7,0.1s-1.7,0.7-2.7,1.2c-1,0.4-2.6,1.4-2.6,1.4l-2.9,1.1c0,0-1.6,0.6-1.7,1.1c-0.1,0.4-0.1-1-0.1,0.4
			c0,1.4,0,1.4,0,1.4S387.9,538.2,387,539.7z M321,481.8c-1.4-5.3-4.9-11.8-5-17.1c-0.1-5.3,1.7-12,0.4-19
			c-1.3-7.1-0.7-9.2,0.3-12.1c0.5-1.3,0.7-2,0.7-2.7h8.7c1.3,23.1,10.5,44.1,25,60.4l-22.1,22.1c-0.6-0.7-1.3-1.4-1.9-2.1
			c0-0.1-0.1-0.1-0.1-0.2c-1.7-3.5-5.5-10.9-6.3-13.5c-0.9-2.6-3.2-7.2-3.9-8.1C316.2,488.5,322.5,487.1,321,481.8z M253.8,419.5
			c1.4-43.1,18.7-82.1,46.2-111.5l21.1,21.1c-20,21.6-33.3,49.5-36.7,80.3c-1.6,1.4-4.6,4.4-5.2,10.1H253.8z M277.1,430.9
			c-0.6,0.1-1.4,0.1-2.4,0.1c-0.3,0-0.5,0-0.7-0.1H277.1z M284.2,511.7c3,0.6,5.5-1.4,7.8,1.7c0,0,14.3,17,19.7,17.3L300,542.4
			c-11.1-11.9-20.6-25.3-28-40C276.7,506.4,281.6,511.3,284.2,511.7z M309.7,410.8c0,0-0.7,0.3-1.2,0.3c-0.4,0-1.3,0-1.3,0
			s-0.7-1-0.7-2.4c0-1.4-0.7-2.7-0.7-2.7s-0.3-2.6-0.7-3.3c-0.4-0.7-1.3-1.7-1.7-2.2c-0.4-0.4-1.2-1.7-2.2-2.3
			c-0.8-0.5-2.3-1.2-3.2-1.4c5.1-22.6,16-43.1,31.1-59.6l22.1,22.1c-1.4,1.6-2.8,3.3-4.1,4.9c-0.7,0.1-1.4,0.3-2.1,0.7
			c-4.2,5.7-7.9,11.8-10.9,18.2c-0.4,0.4-0.8,0.8-1.4,1.2c-1.7,1.2-2.4,2.2-3.5,4.2c-1,2-3,4.2-3.2,4.6c-0.1,0.4,0.1-0.1-1.6,0.9
			c-1.7,1-3.5,1.7-3.5,1.7s-3.7,2.9-4.5,5c-0.7,2.2-2.3,3-2.4,3.8c-0.1,0.7-0.3,2.2-0.3,2.2s1.3,2.7,1.3,3.2c0,0.4-1.2,2.4-1.2,2.4
			s-1.3-1-2.2-1.3C310.8,410.6,309.7,410.8,309.7,410.8z M353.5,386.8c0.3,0.7,0.3-0.7,0.3,0.7c0,1.4,0.3,0.9,0,2.2
			c-0.3,1.3-0.3,1.3-0.3,1.3s-0.4,0.6-0.7,1.2s-0.3,0.7-0.4,1.3c-0.1,0.6-0.7,1.6-0.7,1.6l-1.2,1.4v1.6c0,0-0.3,1.6-0.4,2.5
			c-0.1,0.9-0.6,2-0.6,2s-0.3-0.7-0.6,0.6c-0.3,1.3-0.3,1.4-0.6,2.3c-0.3,0.9,1-0.3-0.3,0.9c-1.3,1.2-2.4,1.2-2.4,1.2
			s-2.4,0.4-2.9,0.7c-0.4,0.3-1.4,0.7-1.4,0.7s-1.4-0.1-1.4,0.6c0,0.7,0,2.4,0,2.4l2,0.9c0,0,0.7,0,1.9-0.1c1.1-0.1,2-0.7,2-0.7
			s0.9-0.6,2-0.3c1.2,0.3,0.4-0.3,1.2,0.3c0.7,0.6,1,0.3,1.2,1.6c0.1,1.3,0.6,3,0.6,3s1.6,2.4,4,3h-18.5c0.1-2.3,0.4-4.6,0.7-6.9
			c0.3-0.6,0.5-1.1,0.7-1.4c0.6-1.7,0.9-3.6,0.9-3.6s0-2,0-3c0,0,0-0.1,0-0.1c2-8.5,5.3-16.6,9.5-24c0.4,0.8,0.7,1.3,0.7,1.3
			l2.2,1.4c0,0-1.6-0.6,0,0.4c1.6,1,2.7,2.3,2.7,2.3S353.2,386.1,353.5,386.8z M316.7,412.8c1.9-2.6,0-4.6,0-4.6s0.6-3.8,2.6-5.6
			c2-1.9,2.9-1.6,4.6-0.7c1,0.5,2.2,1,3.1,1.3c0.5,0.2,0.9,0.3,1.4,0.4c-1.2,5.2-1.9,10.6-2.2,16h-9.9c0.1-1.6-0.1-2.9-1.1-3.6
			C312.5,414.1,314.9,415.4,316.7,412.8z M358.2,484.2c-12.7-14.4-20.8-32.9-22.1-53.3h28.5c0.2,0.4,0.5,0.8,0.8,1.1
			c0.9,0.7,2.3,1,2.3,1s0.6-0.2,1.3-0.5c1.4,10.8,5.8,20.6,12.3,28.7L358.2,484.2z M356.2,368.5c0.6-0.8,1.3-1.5,2-2.3l1.9,1.9
			c-0.8,0.2-1.4,0.3-1.4,0.3S357.9,369.7,356.2,368.5z M359.2,351.2l-22.1-22.1c21.9-20.1,50.7-32.8,82.4-34.1v31.2
			C396.4,327.5,375.4,336.7,359.2,351.2z M329.1,321.1L308,300c29.4-27.5,68.4-44.8,111.5-46.2v29.8
			C384.7,285,353,298.9,329.1,321.1z M270.9,278.9L291,299c-28.6,30.4-47,70.6-49.7,115.1c-0.4-0.4-0.6-0.7-0.6-0.7l-2.2,0.6
			c0,0-0.9,1-0.7,2c0.1,1,0,0.3,0.6,1.6c0.4,0.8,0.8,1.6,1.1,2h-1.9l-0.6-0.9c0,0-0.4,0.1-0.9,0.4c-0.4,0.3-1.3,0.1-1.3,0.1
			s-0.1-2.9-0.3-3.5c-0.1-0.6-1.3-1.7-1.3-1.7s-0.3-2.4-0.7-2.4s-1.4-0.1-1.4-0.1l-1.4-2.3l-1-0.3c0,0-2.3,0.9-2.7,1.7
			c-0.4,0.9-1.6,1.7-1.6,1.7s-2.3,0.4-2.7,0.7c-0.4,0.3-2.4,1.4-2.4,1.4s-0.5,1-1.5,2.5c-0.4,0.5-0.5,1.4-0.7,2.6h-4.2
			C214.1,365.1,236,315.8,270.9,278.9z M212.7,430.9h2.5c-0.8,4.1-1.1,5.4-1.1,6.8c0,1.7,0.4,19.6,3.6,20.2c2.6,0.5-1.4-11.7,2-15.3
			c3.5-3.6,4.2-5.9,4.2-5.9s1.6,6,3.7,9.8c2.2,3.7,2.9,8.6,4.7,8.2c1.8-0.4,0.9-9.1,1.5-9.1c0.6,0,2.6,8.3,6.1,12.2
			c3.5,3.9,3.2,7.8,3.5-2.3c0-0.1,0-0.2,0-0.3c6.1,36.9,23.1,70.1,47.6,96.1l-20.1,20.1C236,534.6,214.1,485.3,212.7,430.9z
			 M419.5,637.7c-54.4-1.4-103.8-23.3-140.6-58.2l20.1-20.1c31.7,29.8,73.9,48.5,120.5,49.9V637.7z M419.5,596.6
			c-43.1-1.4-82.1-18.7-111.5-46.2l19.4-19.4c2.4,1.5,4.6,2.6,7,3.1c23.2,19.4,52.8,31.5,85.1,32.8V596.6z M419.5,485.7
			c-0.4,0.3-0.7,0.6-0.7,0.9c0,0.4-1.2,1,0,1.9c0.3,0.2,0.5,0.4,0.7,0.5v9.7c-0.3,0.7-0.6,1.5-0.4,1.5c0.1,0,0.3,0.1,0.4,0.1v11.5
			c-0.5,0-1.2,0-1.2,0s-5.1,0.3-5.5,0c-0.4-0.3-0.9,0.1-0.9,0.1s-0.9,0.4-1.1,1.3c-17-2.7-32.3-10.3-44.6-21.1l23.1-23.1
			c8.4,6.9,18.8,11.4,30.2,12.5V485.7z M428.2,473.3c-0.1,0-0.1,0-0.2,0c-0.9,0.1-1.9,0.1-2.8,0.1s-1.9,0-2.8-0.1
			c-0.1,0-0.1,0-0.2,0c-0.9-0.1-1.8-0.1-2.7-0.2c-9.1-1.1-17.3-4.6-24.2-10c-3-2.3-5.7-5-8-8c-5.4-6.8-8.9-15.1-10-24.2
			c-0.1-0.9-0.2-1.8-0.2-2.7c0-0.1,0-0.1,0-0.2c0-0.4,0-0.9,0-1.3c1.7,0.7,3.2,2.4,3.2,2.4l1.7,1.2c0,0,0.5,0,1-0.6
			c0.5-0.6,0.2-0.7,0.2-0.7s1-0.2,1.2-0.5c0.2-0.3,0.2-1.1,0.4-1.4c0.2-0.3,0.5-2.3,0.5-2.8c0.1-0.5,0.5-0.8,0.9-1.2
			c0.5-0.4,0.5-0.7,0.5-1.1c0-0.4,0.5-0.8,0.6-1.4c0.1-0.5,0-0.7-0.2-1c-0.2-0.3-0.8-0.4-0.8-0.4s-1.6-0.1-1.8-0.1
			c-0.3,0-1.3,0.1-1.3,0.1l-1.9,0.5h-0.8c0.3-2.5,0.8-5,1.6-7.4c0.2-0.4,0.5-0.8,0.7-0.8c0.4,0,1.6-0.9,1.6-0.9s1-0.1,1.6-0.3
			c0.6-0.1,2.2,0.1,2.2,0.1s0.1,0,1,1.2c0.9,1.2,1.4,2.6,1.4,2.6s0.3,1.2,0,1.6c-0.3,0.4-0.3-0.3-1.3,0.7c-1,1-1.3-0.3-1,1
			c0.3,1.3,0.9,1.6,0.9,1.6l2.7-0.7c0,0,0.1-0.4,0.4-0.5c-0.4-0.2,0-1,0-1.3c0-0.3,1.7,0,1.7,0h2.9h2.2v1.6l-1.7,0.6
			c0,0-1,0-2.6-0.8c-1.6-0.8-1.3-0.1-2.2,0c0,0,0,0,0,0c0.1,0.1,0.2,0.3,0.4,0.7c0.6,1.6-0.1,0.7,0.6,1.6c0.7,0.9,0.7,0.9,0.7,0.9
			s-0.6,1.3-1,1.4c-0.4,0.1-2.2,0.4-2.2,0.4s0.4-1.7-0.9-1.9c-1.3-0.1-1.9,0.4-1.9,0.4l-1.2,2.5l-0.4,0.9c0,0-1,0.6-0.6,1.3
			c0.4,0.7,1.4,0.7,1.4,0.7s1,0.3,1.4,0.6c0.4,0.3-1.3,0.3,0.4,0.3c1.7,0,1.7,0,1.7,0s1.3-2,3-2.4c1.7-0.4,2.7-1.4,3-1.9
			c0.3-0.4,2.7-2.6,2.7-2.6l1.9,0.3v2.2c0,0-1.4,0.7-2,1.7c-0.6,1-3.3,4-4.2,4.6c-0.9,0.6-2.2,0.7-2.6,1c-0.4,0.3-3.6,0.7-3.9,1.2
			c-0.3,0.4-3.2,2.9-3.3,3.7c-0.1,0.9-2.3,3.7-1.3,4.5c1,0.7,1.3-0.1,3.2-0.9c1.9-0.7,4.9,0.4,5.8,0.9c0.9,0.4,2.6,1.3,3.3,0.9
			c0.7-0.4,2.3-3,2.7-3.7c0.4-0.7,1.6-2.5,3-3.3c1.4-0.9,2.3-1.6,2.7-3.2c0.4-1.6,0.7-3.9,0.7-3.9v-2.7l0.7-2.9v-1.7l-2.3,0
			c0,0,0,0-1.4-0.4l0.9-1c0,0,0.6-0.9,0.9-1.6c0.3-0.7,0.4-0.7,0.7-1.2c0.3-0.4,0.9-0.6,1.4-0.9c0.6-0.3,0.7-0.3,1.4-0.9
			c0.7-0.6,0-0.9-0.9-1.7c-0.9-0.9,0,0-0.4-0.1c-0.4-0.1-1.9,0.6-1.9,0.6l-1,1.4l-0.1,1.3l-0.9,1.6c0,0,0,0-0.7,0.7
			c-0.7,0.7-1.2,0.4-1.2,0.4l0.4-0.9l-0.3-1.7c0,0-0.7,0-1.4,0c-0.7,0-1.4,0-1.4,0s-0.9-0.3-1.6-0.7c-0.7-0.4-0.3-0.7-0.3-1.3
			c0-0.6,0.6-0.9,0.6-0.9s1.6,1,2,1.2c0.4,0.1,0.7,0.3,0.7,0.3s0.7,0,1.6-0.6c0.9-0.6,0.4-1.2,0.4-1.2s0.9-0.1,1.3-0.1
			c0.4,0,1-0.3,1-0.3l1.6-0.4c0,0,0,0,0.3-1c0.3-1,0,0,0.1-0.4c0.1-0.4-0.1-0.9-1-1.9l-1.3,0.7l-1,0.6l-5,1.5c0.4-0.7,1-1.4,1-1.4
			s0.4,0.4,1.2,0.6c0.4,0.1,0.6-0.3,0.8-0.7c0.2-0.4,0.2-0.8,0.2-0.8s-0.6,0.3,0.7-0.9c1.3-1.2,2.7-2.4,3.2-2.9
			c0.4-0.4,0.7-0.4,1.7-1.3c1-0.9,1.9,0.1,2.6-0.7c0.7-0.9,0.9-1.1,1.7-1.3s1.2-0.1,2.2-0.7c1-0.6,1.3-1,1.7-1.2
			c0.4-0.1,1.6-1.6,1.6-1.6s1.3-1,1.3-1.4c0-0.4-0.4-0.9,0-1.3c0.4-0.4,0.4-0.4,0.4-0.4s0.4-1.3,0.9-2.6c0.4-1.3,0.4-1.3,0.4-1.3v-1
			l0.6-0.7c0,0,0.5-0.3,0.8-0.7c0.3-0.4,0-1.6,0-1.6l0.1-0.7l-0.9-2.2c0,0-1,0.6,0.9-1c1.9-1.6,1.3-0.7,1.9-1.6c0-0.2,0-0.4,0.1-0.6
			c0.8-2.5-2.2,0.1-2.2,0.1c0,0.2-0.1,0.3-0.7,0.8c-1.4,1-3,2.2-3,2.2s-1.4,1-2.3,1.9c-0.9,0.9,0.4,0.7-1.6,1.7c-2,1-1.3,0.7-2,1
			c-0.7,0.3-0.4,0.1-2.3,0.4c-1.9,0.3-3.6,0.3-3.6,0.3s-1.3-1.2-2.3-1.6c-0.4-0.2-0.7-0.3-1.1-0.3c-1-0.9-1.7-1.8-2.3-2.6
			c5.9-3.8,12.8-6.3,20.1-7.1c0.9-0.1,1.8-0.2,2.7-0.2c0.1,0,0.1,0,0.2,0c0.9-0.1,1.9-0.1,2.8-0.1c0.3,0,0.6,0,0.9,0
			c-0.5,1.8-0.7,3.5-0.7,3.5c0.1,1.1,0.5,2.6,0,3.1c-0.6,0.7-0.7,2-0.7,2.4c0,0.4,0.1,2.2,0,2.9c-0.1,0.7-0.3,1.7,0,2.9
			c0.3,1.2,1.1,1.2,1.1,1.9c-0.1,0.7,1.2,2,1.2,2l1.7,1h2l0.7-1.3l2.6-0.6l2.3,1.9c0,0-0.4,1.9,0,2.3c0.4,0.4,0,1.4,0,1.4h2.7
			l1.9,0.7c0,0-0.7,4.2,0,5.3c0.7,1.1,1.7,2,1.7,2s0.3,0.3,0.9,0c0.6-0.3,2.2-1,2.2-1l1.9-1c0,0-0.3,0.4,0,1.3
			c0.3,0.9,2.2,0.8,2.2,0.8s1.4-1,1,0c-0.4,1-0.7,1.5-1.9,2.2c-1.2,0.7-2.2,1-2.2,1s-0.9-0.1-1.2,0.9c-0.3,1,0,3.6,0,3.6h2.5h0.9
			c0,0,0,1.7,0,2.2c0,0.4,0,2.3,0,2.3h-1.4c0,0-1.7-1-2,0c-0.3,1-2,1.2-2,1.2s-2.4,1.9-2.9,2.2c-0.4,0.3-1.6,1.2-1.6,1.2
			s-1.6,2.2-2,2.3c-0.4,0.1-1.4,1-1.4,1l1.3,1.1c0,0,2.3-1.7,2.7-1.7c0.4,0,1.6-0.3,1.6-0.3l1.3,0.7c0,0,0.4,1.4,1.2,1.3
			c0.7-0.1,3.6-1,3.6,0c0,1,2.2,1.3,2.4,1.9c0.3,0.6,0.9,0.4,2,1c1.2,0.6,4,0,4,0l1.4,0.3c0,0-1.3,1.2-2,2.2c-0.7,1-1.7,2-1.6,2.7
			c0.1,0.7,3.2,1.4,3.6,2c0.4,0.6,0.3,0.6,2,1.4c1.7,0.9,1.7,0.9,1.7,0.9s1,0.3,1.6,0.7c0.3,0.2,0.6,0.2,0.9,0.2l-3.8,2.6h-1.9
			c0,0-1,0.7-2.5,1.6c-1.4,0.9-1.4,0.9-1.4,0.9l-2.9-0.9c0,0-1.6,0.6-1.2,0.9c0.4,0.3,3.2,2.2,3.2,2.2l2.9,2.2c0,0,0.1,1,0.3,1.4
			c0.1,0.4,1.4,1.7,1.4,1.7l0,0.4c-1.1,1.2-2.4,2.4-3.6,3.5c-0.5-0.4-1-0.9-1.7-1c-1.3-0.3,0.1-0.9,0.6-0.9c0.4,0,1.9-0.8,1.9-0.8
			s0-0.2,0-0.9c0-0.7,0-2,0-2s-1-0.6-1.4-1c-0.4-0.4-1.7-1.7-1.7-1.7l-3.2-0.9c0,0-2.5-0.1-3.6-0.3c-1.1-0.1-2.4-0.3-2.4-0.3
			l-2.4,0.4l-0.9,0.7l-0.9,3c0,0-0.6,3.2-0.6,4.3c0,1.2,0,2.5,0,2.5s0.1,1.6,0.1,2.1c0,0.4,0,1.7,0,1.7l0.7,1.3h1.3
			c0,0,2.4,0.3,2.7,0c0.3-0.3,1.4-1,2.3-1.3c0.9-0.3,1.6-0.6,1.6-0.6s0.6,0,1.1,0.2c-1.8,1.1-3.7,2-5.7,2.8
			c-0.3-0.1-0.7-0.3-1.1-0.3c-1,0-2.6,1.4-2.6,1.4h-0.4c0,0,0,0.1,0,0.3c0,0-1.5,1.6-2.6,4c-1.3,0.3-2.7,0.5-4.1,0.6
			C430,473.1,429.1,473.2,428.2,473.3z M430.9,637.7v-28.4c20.8-0.6,40.6-4.7,59.1-11.6c2.9,1.8,4.6,2.5,6.4,2.9
			c2,0.4,5.3-3.3,9.7-4.5c4.3-1.2,7.6-2.5,11.7-6.2c4-3.7,10.5-6.3,13.5-11.5c1-1.7,1.8-3.1,2.4-4.3c6.2-4.5,12.1-9.5,17.7-14.7
			l20.1,20.1C534.6,614.4,485.3,636.3,430.9,637.7z M579.5,571.5l-20.1-20.1c29.8-31.7,48.5-73.9,49.9-120.5h28.4
			C636.3,485.3,614.4,534.6,579.5,571.5z"/>
		<path id="马岛" d="M231.3,492.5c2.2-2.8-6.1-17.2-6.1-17.2C222.7,475.4,229.1,495.2,231.3,492.5z"/>
	</g>
	<g id="中圈">
		<g>
			<path d="M172,195.9c-3.4-2.9-8.6-4.1-13.5,1.7l-11.2,13.3l14.2,11.9l11.2-13.3C177.5,203.7,175.4,198.8,172,195.9z"/>
			<path d="M206.8,223c-3.7-3.1-9.2-4.4-14.1,1.5l-12.1,14.4l15.2,12.8l12.1-14.4C212.9,231.4,210.5,226.1,206.8,223z"/>
			<path d="M425.2,28.3C206,28.3,28.3,206,28.3,425.2S206,822,425.2,822S822,644.4,822,425.2S644.4,28.3,425.2,28.3z M700.1,168.5
				L679.8,233l43.7-36.6l17.9,21.3l-86.9,72.9l-15.7-18.7l20.3-64.5l-43.7,36.6l-17.9-21.3l86.9-72.9L700.1,168.5z M521,134.9
				l32.3-65.4L578,81.7l-32,64.9c-4.6,9.3-2.2,17.2,6,21.3c8.2,4.1,16.3,1.3,20.9-8l32-64.9l24.8,12.2l-32.3,65.4
				c-10.9,22.1-35.3,27.7-56.3,17.3C520.2,179.6,510,157,521,134.9z M372.3,49.5h27.4l25.5,50l25.5-50h27.4v113.4h-27.9v-54.3
				l-16.1,28h-17.8l-16.1-28v54.3h-27.9V49.5z M292.1,72.1l32.6,66.3c11.8,23.9-1.6,44.8-20.6,54.1c-11.8,5.8-20.7,6.6-32.9,2.5
				l8.4-24.2c4.7,1.6,8.2,2.3,13.7-0.4c7.7-3.8,11.1-10.7,6.3-20.4l-32.3-65.8L292.1,72.1z M140.4,180.2
				c15.1-18.1,33.4-19.2,48.4-6.6c9.9,8.3,9.6,19.7,9.2,23.9c5.2-1.7,15.7-5.1,27.9,5.1c16.6,13.9,15.9,33.1,2.9,48.6l-31.7,37.8
				l-86.9-72.9L140.4,180.2z M133.5,529.2l8.8,27.1l-23-16.7l-23,16.7l8.8-27.1l-23-16.7h28.5l8.8-27.1l8.8,27.1h28.5L133.5,529.2z
				 M425.2,666.1c-133.1,0-240.9-107.9-240.9-240.9s107.9-240.9,240.9-240.9s240.9,107.9,240.9,240.9S558.3,666.1,425.2,666.1z
				 M731.1,539.6l-23,16.7l8.8-27.1l-23-16.7h28.5l8.8-27.1l8.8,27.1h28.5l-23,16.7l8.8,27.1L731.1,539.6z"/>
		</g>
	</g>
	<path id="外圈" d="M425.2,0C190.4,0,0,190.4,0,425.2s190.4,425.2,425.2,425.2S850.4,660,850.4,425.2S660,0,425.2,0z M425.2,836.2
		c-227,0-411-184-411-411s184-411,411-411s411,184,411,411S652.2,836.2,425.2,836.2z"/>
</g>
</svg>
