<?xml version="1.0" encoding="UTF-8" standalone="no"?>
<svg width="200px" height="200px" viewBox="0 0 200 200" version="1.1" xmlns="http://www.w3.org/2000/svg" xmlns:xlink="http://www.w3.org/1999/xlink">
    <!-- Generator: Sketch 3.8.3 (29802) - http://www.bohemiancoding.com/sketch -->
    <title>Slice 1</title>
    <desc>Created with Sketch.</desc>
    <defs>
        <circle id="path-1" cx="100" cy="100" r="100"></circle>
        <filter x="-50%" y="-50%" width="200%" height="200%" filterUnits="objectBoundingBox" id="filter-2">
            <feGaussianBlur stdDeviation="10" in="SourceAlpha" result="shadowBlurInner1"></feGaussianBlur>
            <feOffset dx="0" dy="0" in="shadowBlurInner1" result="shadowOffsetInner1"></feOffset>
            <feComposite in="shadowOffsetInner1" in2="SourceAlpha" operator="arithmetic" k2="-1" k3="1" result="shadowInnerInner1"></feComposite>
            <feColorMatrix values="0 0 0 0 0   0 0 0 0 0   0 0 0 0 0  0 0 0 0.2 0" type="matrix" in="shadowInnerInner1"></feColorMatrix>
        </filter>
        <polygon id="path-3" points="28.4465619 53.3464789 7.496862 32.5633803 0.513628702 39.4910798 28.4465619 67.2018779 88.3028474 7.82159624 81.3196141 0.893896714"></polygon>
        <mask id="mask-4" maskContentUnits="userSpaceOnUse" maskUnits="objectBoundingBox" x="-5" y="-5" width="97.7892187" height="76.3079812">
            <rect x="-4.4863713" y="-4.10610329" width="97.7892187" height="76.3079812" fill="white"></rect>
            <use xlink:href="#path-3" fill="black"></use>
        </mask>
    </defs>
    <g id="Page-1" stroke="none" stroke-width="1" fill="none" fill-rule="evenodd">
        <g id="Group-3">
            <g id="Oval-1">
                <use fill="#A5D6A7" fill-rule="evenodd" xlink:href="#path-1"></use>
                <use fill="black" fill-opacity="1" filter="url(#filter-2)" xlink:href="#path-1"></use>
            </g>
            <g id="Group-2" opacity="0.54" transform="translate(45.000000, 56.000000)">
                <g id="ic_credit_card_black_24px" fill="#000000">
                    <g id="Group">
                        <path d="M98.5711897,0.173601331 L11.1076445,0.173601331 C5.03986108,0.173601331 0.229366101,5.04626872 0.229366101,11.1234157 L0.174701386,76.8223019 C0.174701386,82.8994489 5.03986108,87.7721162 11.1076445,87.7721162 L98.5711897,87.7721162 C104.638973,87.7721162 109.504133,82.8994489 109.504133,76.8223019 L109.504133,11.1234157 C109.504133,5.04626872 104.638973,0.173601331 98.5711897,0.173601331 L98.5711897,0.173601331 Z M98.5711897,76.8223019 L11.1076445,76.8223019 L11.1076445,43.9728588 L98.5711897,43.9728588 L98.5711897,76.8223019 L98.5711897,76.8223019 Z M98.5711897,22.0732301 L11.1076445,22.0732301 L11.1076445,11.1234157 L98.5711897,11.1234157 L98.5711897,22.0732301 L98.5711897,22.0732301 Z" id="Shape"></path>
                    </g>
                </g>
                <g id="ic_done_black_24px" transform="translate(40.000000, 34.000000)">
                    <g id="Group">
                        <g id="Shape">
                            <use fill="#000000" fill-rule="evenodd" xlink:href="#path-3"></use>
                            <use stroke="#A5D6A7" mask="url(#mask-4)" stroke-width="10" xlink:href="#path-3"></use>
                        </g>
                    </g>
                </g>
            </g>
        </g>
    </g>
</svg>